<?xml version="1.0" standalone="no"?><!DOCTYPE svg PUBLIC "-//W3C//DTD SVG 1.1//EN" "http://www.w3.org/Graphics/SVG/1.1/DTD/svg11.dtd"><svg class="icon" height="512" viewBox="0 0 1024 1024" version="1.1" xmlns="http://www.w3.org/2000/svg"><path d="M203.776 304.128h629.248c20.992 0 38.4-17.408 38.4-38.4s-17.408-38.4-38.4-38.4H203.776c-20.992 0-38.4 17.408-38.4 38.4s17.408 38.4 38.4 38.4zM833.024 458.752H203.776c-20.992 0-38.4 17.408-38.4 38.4s17.408 38.4 38.4 38.4h629.248c20.992 0 38.4-17.408 38.4-38.4s-16.896-38.4-38.4-38.4zM833.024 690.688H203.776c-20.992 0-38.4 17.408-38.4 38.4s17.408 38.4 38.4 38.4h629.248c20.992 0 38.4-16.896 38.4-37.888 0.512-10.24-3.584-19.456-10.752-26.624-6.656-8.192-16.896-12.288-27.648-12.288z" fill="#333333" /></svg>